<svg width="41" height="3" viewBox="0 0 41 3" fill="none" xmlns="http://www.w3.org/2000/svg">
<path d="M20.5004 0.25586C18.878 0.291386 17.3936 0.490791 16.1292 0.732597C13.172 1.29643 8.22294 0.907934 6.00802 0.448387C5.29807 0.301699 4.52358 0.161887 3.69336 0.065623C2.46708 -0.0764813 1.11759 0.0220749 0.296164 0.266173C-0.155622 0.400256 -0.123351 0.475892 0.621801 0.545798C3.35012 0.803649 5.35675 1.29184 6.74144 1.90381C8.29922 2.59141 10.5405 2.85155 13.5241 2.56735C14.68 2.45618 15.7771 2.30606 16.8714 2.15937C18.0566 2.00008 19.2594 1.91183 20.5004 1.91183" fill="#FAEDC3"/>
<path d="M20.5 0.25586C22.1223 0.291386 23.6068 0.490791 24.8712 0.732597C27.8283 1.29643 32.7774 0.907934 34.9923 0.448387C35.7023 0.301699 36.4768 0.161887 37.307 0.065623C38.5333 -0.0764813 39.8828 0.0220749 40.7042 0.266173C41.156 0.400256 41.1237 0.475892 40.3786 0.545798C37.6502 0.803649 35.6436 1.29184 34.2589 1.90381C32.7011 2.59141 30.4598 2.85155 27.4763 2.56735C26.3204 2.45618 25.2232 2.30606 24.129 2.15937C22.9438 2.00008 21.7409 1.91183 20.5 1.91183" fill="#FAEDC3"/>
</svg>
