<svg width="14" height="19" viewBox="0 0 14 19" fill="none" xmlns="http://www.w3.org/2000/svg">
<path d="M12.3228 3.03748C12.3223 3.03796 12.322 3.03862 12.322 3.0393C12.0684 9.70473 2.12929 9.79719 1.65021 3.35944C1.64079 3.31234 1.62888 3.27556 1.6146 3.24948C1.55615 3.14275 1.43695 3.30747 1.38125 3.41566C0.857919 4.43224 0.883137 5.78597 1.39678 6.83465C4.61037 13.2143 15.7429 8.91907 12.3711 3.03847C12.3611 3.02114 12.3358 3.0188 12.3244 3.03521L12.3231 3.03711C12.323 3.03724 12.3229 3.03737 12.3228 3.03748V3.03748Z" fill="#D9D9D9"/>
<path d="M6.79235 11.078C6.29861 11.1057 5.84683 11.2615 5.46202 11.4503C4.56203 11.8907 3.05581 11.5872 2.38172 11.2284C2.16565 11.1138 1.92994 11.0046 1.67727 10.9294C1.30406 10.8184 0.893353 10.8954 0.643358 11.086C0.50586 11.1908 0.515682 11.2498 0.742463 11.3044C1.5728 11.5058 2.18351 11.8871 2.60493 12.365C3.07903 12.902 3.76116 13.1052 4.66917 12.8832C5.02095 12.7964 5.35488 12.6791 5.6879 12.5646C6.04861 12.4402 6.41468 12.3713 6.79235 12.3713" fill="#D9D9D9"/>
<path d="M6.79253 11.078C7.28627 11.1057 7.73805 11.2615 8.12287 11.4503C9.02285 11.8907 10.5291 11.5872 11.2032 11.2284C11.4192 11.1138 11.6549 11.0046 11.9076 10.9294C12.2808 10.8184 12.6915 10.8954 12.9415 11.086C13.079 11.1908 13.0692 11.2498 12.8424 11.3044C12.0121 11.5058 11.4014 11.8871 10.98 12.365C10.5059 12.902 9.82373 13.1052 8.91571 12.8832C8.56393 12.7964 8.23001 12.6791 7.89698 12.5646C7.53627 12.4402 7.17021 12.3713 6.79253 12.3713" fill="#D9D9D9"/>
<path d="M8.99882 2.97493C9.04085 4.53156 7.95647 6.38838 6.33747 5.92882C5.72887 5.75088 5.20938 5.22323 5.05387 4.56406C4.83868 3.69058 5.29176 2.86816 5.99366 2.45657V2.45657C6.09033 2.4103 6.16097 2.47887 6.13961 2.58389C6.13674 2.59801 6.13409 2.61188 6.13236 2.62523C6.08193 2.84573 6.03569 3.17609 6.18532 3.40587C6.3711 3.72926 6.78887 3.79271 7.04862 3.52579C7.31761 3.25423 7.35292 2.81555 7.31005 2.43955C7.23103 1.78966 6.95195 1.16376 6.53417 0.711932C6.44423 0.607486 6.33243 0.485245 6.28031 0.37461C6.2366 0.28409 6.23828 0.207496 6.28956 0.147149C6.3795 0.0442503 6.5947 0.00711417 6.74853 0.00169845C6.96456 -0.00835932 7.18648 0.0264559 7.38738 0.100729C8.39863 0.45894 9.00554 1.79817 8.99882 2.96951V2.97416V2.97493Z" fill="#D9D9D9"/>
<path d="M6.98036 13.0152C6.98013 13.0152 6.97992 13.0154 6.97984 13.0156L5.00122 18.9682C4.9965 18.9832 5.00594 19 5.02089 19H8.97916C8.99333 19 9.00355 18.9841 8.99883 18.9682L7.02009 13.0152C7.01305 12.995 6.98814 12.9949 6.98089 13.0149C6.98081 13.0151 6.9806 13.0152 6.98036 13.0152V13.0152Z" fill="#D9D9D9"/>
</svg>
